<?xml version="1.0" encoding="UTF-8"?>
<!DOCTYPE svg PUBLIC "-//W3C//DTD SVG 1.0//EN" "http://www.w3.org/TR/2001/REC-SVG-20010904/DTD/svg10.dtd">
<!-- Creator: CorelDRAW X7 -->
<svg xmlns="http://www.w3.org/2000/svg" xml:space="preserve" width="176px" height="132px" version="1.0" shape-rendering="geometricPrecision" text-rendering="geometricPrecision" image-rendering="optimizeQuality" fill-rule="evenodd" clip-rule="evenodd"
viewBox="0 0 21 16"
 xmlns:xlink="http://www.w3.org/1999/xlink">
 <g id="Camada_x0020_1">
  <metadata id="CorelCorpID_0Corel-Layer"/>
  <path fill="white" d="M21 4c0,0 -1,0 -1,0 -1,0 -1,0 -1,0l0 -1c0,-1 0,-1 -1,-1l-10 0c0,0 0,0 0,-1 0,0 0,0 0,0 0,-1 -1,-1 -1,-1l-3 0c-1,0 -1,0 -1,1 0,0 -1,0 -1,0 0,0 0,1 0,1l-1 0c0,0 -1,0 -1,1l0 12c0,0 0,1 1,1 0,0 0,0 0,0l18 0c0,0 0,0 1,-1l1 -10c0,-1 0,-1 0,-1zm-20 -1l1 0c1,0 1,-1 1,-1 0,0 0,0 1,0 0,-1 0,-1 0,-1l3 0c0,0 0,0 0,1 0,0 0,0 0,0 0,0 1,1 1,1l10 0c0,0 0,0 0,0l0 1c0,0 0,0 0,0 -3,0 -14,0 -14,0 -1,0 -1,0 -1,1l-2 8c0,0 0,0 0,-1 0,-2 0,-9 0,-9 0,0 0,0 0,0z"/>
 </g>
</svg>
