<?xml version="1.0" encoding="UTF-8"?>
<!DOCTYPE svg PUBLIC "-//W3C//DTD SVG 1.0//EN" "http://www.w3.org/TR/2001/REC-SVG-20010904/DTD/svg10.dtd">
<!-- Creator: CorelDRAW X7 -->
<svg xmlns="http://www.w3.org/2000/svg" xml:space="preserve" width="1517px" height="233px" version="1.0" shape-rendering="geometricPrecision" text-rendering="geometricPrecision" image-rendering="optimizeQuality" fill-rule="evenodd" clip-rule="evenodd"
viewBox="0 0 1862 286"
 xmlns:xlink="http://www.w3.org/1999/xlink">
 <g id="Camada_x0020_1">
  <metadata id="CorelCorpID_0Corel-Layer"/>
  <path fill="white" d="M595 284l0 0 -24 0c-6,0 -11,-5 -11,-11l0 -262c0,-6 5,-11 11,-11l24 0c6,0 11,5 11,11l0 262c0,6 -5,11 -11,11zm95 -273l0 0 0 31c0,6 -5,11 -11,11l-24 0c-6,0 -11,-5 -11,-11l0 -31c0,-6 5,-11 11,-11l24 0c6,0 11,5 11,11zm-11 273l0 0 -24 0c-6,0 -11,-5 -11,-11l0 -179c0,-6 5,-11 11,-11l24 0c6,0 11,5 11,11l0 179c0,6 -5,11 -11,11zm188 -201l0 0 26 0c6,0 10,5 10,11 0,2 0,4 -1,5l-77 173 0 0c-1,4 -4,8 -8,10l0 0c-2,1 -4,2 -6,3 -2,0 -4,1 -6,1 -10,0 -17,-5 -21,-14 0,0 0,0 0,0l-77 -174c-2,-5 0,-11 6,-14 1,-1 3,-1 4,-1l0 0 26 0c4,0 8,3 10,7l52 117 52 -117c2,-4 5,-7 10,-7l0 0zm196 77l0 0c-1,-3 -3,-6 -4,-9 -3,-6 -6,-10 -11,-14 -5,-4 -10,-7 -17,-9 -7,-2 -15,-3 -24,-3 -18,0 -31,4 -41,12 -5,4 -8,8 -11,14 -1,3 -2,6 -3,9l111 0zm-56 -81l0 0c32,0 57,10 76,28 9,9 16,20 20,33 5,13 7,27 7,43l0 0c0,3 0,6 -2,9 -1,3 -2,5 -5,7 -2,2 -4,4 -7,5l0 0 0 0c-3,1 -5,2 -8,2l-136 0c1,3 2,6 3,8 3,6 7,11 11,15 5,3 10,6 17,8 7,2 15,3 24,3 10,0 18,-1 25,-3 7,-2 13,-6 17,-10 5,-4 12,-4 16,0l0 0 16 17c4,4 4,11 0,15l0 0 0 0c-9,9 -20,16 -33,20 -12,5 -26,7 -41,7 -32,0 -57,-9 -76,-28 -9,-9 -16,-20 -20,-33 -5,-12 -7,-26 -7,-42l0 0c0,-32 9,-57 27,-76 10,-9 21,-16 34,-21 12,-4 26,-7 42,-7z"/>
  <path fill="#88EB2C" d="M246 152c0,2 1,3 0,4l1 78c0,3 -1,6 -2,9 -1,2 -3,5 -5,7 -12,12 -27,21 -44,27 -17,6 -36,9 -57,9 -10,0 -21,-1 -30,-2 -10,-2 -19,-4 -28,-7 -8,-4 -16,-7 -24,-12 -7,-5 -14,-10 -20,-16 -6,-6 -11,-13 -16,-20 -5,-8 -8,-16 -12,-24 -3,-9 -5,-18 -7,-28 -1,-9 -2,-20 -2,-30 0,-11 1,-21 2,-30 2,-10 4,-19 7,-28 1,0 1,0 1,0 3,-9 7,-17 11,-24 5,-7 10,-14 16,-20 0,0 1,0 1,-1 6,-5 12,-11 19,-15 8,-5 16,-9 24,-12 9,-3 18,-5 28,-7 9,-1 20,-2 30,-2 18,0 34,2 49,6 15,5 29,12 41,21 5,3 6,10 2,15l-14 18c-4,5 -10,6 -15,3l0 0c-16,-12 -37,-18 -63,-18 -31,0 -54,8 -70,24 -8,7 -14,17 -18,29 -4,11 -6,25 -6,41 0,16 2,30 6,42 4,11 10,21 18,28 8,8 17,14 29,18 11,4 25,6 41,6 15,0 27,-2 38,-5 9,-3 17,-7 24,-12l0 -40 -30 0c-11,0 -19,-9 -19,-20l0 0c0,-11 8,-20 19,-20l70 0c3,0 5,3 5,8zm155 -99l0 0c-31,0 -54,8 -70,24 -16,16 -24,39 -24,70 0,31 8,55 24,70 16,16 39,24 70,24 31,0 55,-8 70,-24 8,-7 14,-17 18,-28 4,-12 6,-26 6,-42 0,-31 -8,-54 -24,-70 -7,-8 -17,-14 -28,-18 -12,-4 -26,-6 -42,-6zm0 233l0 0c-10,0 -20,-1 -30,-2 -10,-2 -19,-4 -28,-7 -8,-4 -16,-7 -24,-12 -7,-5 -14,-10 -20,-16 0,0 0,-1 0,-1 -6,-6 -11,-12 -16,-19 -4,-8 -8,-16 -12,-24 -3,-9 -5,-18 -7,-28 -1,-9 -2,-20 -2,-30 0,-11 1,-21 2,-30 2,-10 4,-19 7,-28 4,-8 8,-16 12,-24 5,-7 10,-14 16,-20 0,0 1,0 1,-1 6,-5 12,-11 19,-15 8,-5 16,-9 24,-12 9,-3 18,-5 28,-7 10,-1 20,-2 30,-2 11,0 21,1 31,2 9,2 18,4 27,7 9,3 17,7 24,12 7,5 14,10 20,16l0 0c6,6 12,13 16,20 5,8 9,16 12,24 3,9 5,18 7,28 2,9 2,19 2,30 0,10 0,21 -2,30 -2,10 -4,19 -7,28 -3,8 -7,16 -12,24 -5,7 -10,14 -16,20 -6,6 -13,11 -20,16 -7,5 -15,8 -24,12 -9,3 -18,5 -27,7 -10,1 -20,2 -31,2z"/>
  <g id="_972667756160">
   <g>
    <path fill="#F0CE2E" fill-rule="nonzero" d="M1690 268c1,1 3,2 4,2 3,0 5,-2 5,-6l0 -52 -9 0 0 41 -40 -40c-2,-1 -3,-2 -5,-2 -3,0 -5,3 -5,6l0 52 10 0 0 -42 40 41z"/>
    <polygon fill="#FEFEFE" fill-rule="nonzero" points="1721,268 1721,221 1743,221 1743,211 1690,211 1690,221 1711,221 1711,268 "/>
    <path fill="#2D87B2" fill-rule="nonzero" d="M1862 268l0 -10 -31 0c-10,0 -18,-7 -18,-18 0,-11 8,-19 18,-19l31 0 0 -10 -31 0c-16,0 -28,12 -28,28 0,17 12,29 28,29l31 0z"/>
    <path fill="#FEFEFE" fill-rule="nonzero" d="M1777 266c2,2 3,3 5,3 2,0 4,-1 5,-3l33 -55 -11 0 -26 44 -26 -44 -12 0 32 55z"/>
   </g>
   <path fill="white" d="M1220 248c0,3 -1,6 -1,9 -1,3 -2,5 -4,7 -1,2 -3,4 -5,5 -2,1 -5,1 -7,1 -2,0 -3,0 -4,0 -1,0 -2,-1 -3,-1 -1,-1 -2,-1 -3,-2 -1,-1 -2,-2 -3,-3l0 20c0,1 0,1 0,1 0,0 0,0 0,0 -1,0 -1,1 -1,1 -1,0 -2,0 -2,0 -1,0 -2,0 -2,0 -1,0 -1,-1 -1,-1 0,0 -1,0 -1,0 0,0 0,0 0,-1l0 -55c0,-1 0,-1 0,-1 0,0 0,0 1,-1 0,0 0,0 1,0 0,0 1,0 1,0 1,0 1,0 2,0 0,0 1,0 1,0 0,1 0,1 0,1 0,0 1,0 1,1l0 5c1,-1 2,-2 3,-3 1,-1 2,-2 3,-3 2,0 3,-1 4,-1 1,0 2,0 4,0 3,0 5,0 7,1 2,1 4,3 5,5 1,2 2,4 3,7 0,2 1,5 1,8zm-8 1c0,-2 0,-4 0,-6 -1,-2 -1,-4 -2,-5 -1,-2 -2,-3 -3,-4 -1,-1 -3,-1 -5,-1 -1,0 -2,0 -3,0 0,0 -1,1 -2,2 -1,0 -2,1 -3,2 -1,1 -2,2 -4,4l0 15c2,3 4,5 6,6 2,1 4,2 6,2 2,0 3,0 5,-1 1,-1 2,-2 3,-4 1,-1 1,-3 2,-5 0,-2 0,-3 0,-5zm56 -1c0,3 -1,6 -1,9 -1,3 -3,5 -4,7 -2,2 -4,4 -7,5 -2,1 -5,1 -9,1 -3,0 -6,0 -8,-1 -3,-1 -5,-3 -6,-4 -2,-2 -3,-5 -4,-7 -1,-3 -1,-6 -1,-9 0,-3 0,-6 1,-9 1,-3 2,-5 4,-7 2,-2 4,-4 6,-5 3,-1 6,-1 9,-1 4,0 6,0 9,1 2,1 4,2 6,4 2,2 3,4 4,7 0,3 1,6 1,9zm-8 0c0,-2 0,-4 0,-6 -1,-2 -1,-3 -2,-5 -1,-1 -3,-2 -4,-3 -2,-1 -4,-1 -6,-1 -2,0 -4,0 -6,1 -1,1 -2,2 -3,3 -1,1 -2,3 -3,5 0,2 0,4 0,6 0,2 0,5 0,6 1,2 1,4 2,6 1,1 2,2 4,3 2,1 3,1 6,1 2,0 4,0 5,-1 2,-1 3,-2 4,-3 1,-2 2,-3 2,-5 1,-2 1,-4 1,-7zm74 -20c0,1 0,1 0,1 0,0 0,1 0,1l-12 38c0,1 0,1 -1,1 0,0 0,0 0,0 -1,1 -1,1 -2,1 0,0 -1,0 -2,0 -1,0 -2,0 -2,0 -1,0 -1,0 -2,-1 0,0 0,0 -1,0 0,0 0,0 0,-1l-8 -29 0 0 0 0 -8 29c0,1 0,1 -1,1 0,0 0,0 -1,0 0,1 0,1 -1,1 -1,0 -1,0 -2,0 -1,0 -2,0 -2,0 -1,0 -2,0 -2,-1 0,0 -1,0 -1,0 0,0 0,0 0,-1l-12 -38c0,0 0,-1 0,-1 0,0 0,0 0,-1 0,0 0,0 0,0 0,0 0,-1 1,-1 0,0 0,0 1,0 0,0 1,0 1,0 1,0 2,0 2,0 1,0 1,0 2,0 0,1 0,1 0,1 0,0 0,0 0,1l10 33 0 0 0 0 9 -33c0,-1 0,-1 0,-1 1,0 1,0 1,-1 0,0 1,0 1,0 1,0 1,0 2,0 1,0 1,0 2,0 0,0 0,0 1,0 0,1 0,1 0,1 0,0 1,0 1,0l9 34 0 0 0 0 10 -33c0,-1 0,-1 0,-1 0,0 0,0 1,-1 0,0 0,0 1,0 0,0 1,0 2,0 0,0 1,0 1,0 1,0 1,0 1,0 1,1 1,1 1,1 0,0 0,0 0,0zm42 19c0,1 0,2 -1,2 0,1 -1,1 -2,1l-26 0c0,2 1,4 1,6 0,2 1,3 2,4 1,2 3,3 4,3 2,1 4,1 6,1 2,0 4,0 5,0 2,0 3,-1 4,-1 1,0 2,-1 3,-1 1,0 1,-1 1,-1 1,0 1,0 1,1 0,0 0,0 0,0 0,0 0,1 1,1 0,0 0,1 0,1 0,1 0,1 0,1 0,1 -1,1 -1,1 0,0 0,0 0,1 0,0 0,0 0,0 0,0 -1,1 -2,1 0,0 -1,1 -3,1 -1,0 -2,1 -4,1 -2,0 -4,0 -5,0 -4,0 -7,0 -9,-1 -3,-1 -5,-2 -6,-4 -2,-2 -3,-4 -4,-7 -1,-3 -1,-6 -1,-9 0,-4 0,-7 1,-10 1,-2 2,-5 4,-7 1,-1 4,-3 6,-4 2,-1 5,-1 8,-1 3,0 6,0 8,1 2,1 4,2 5,4 2,2 3,4 3,6 1,2 1,5 1,7l0 2zm-7 -2c0,-4 -1,-7 -3,-9 -1,-3 -4,-4 -8,-4 -1,0 -3,1 -4,1 -2,1 -3,2 -4,3 -1,1 -1,2 -2,4 0,1 -1,3 -1,5l22 0zm42 -14c0,1 0,1 0,2 0,0 0,1 0,1 0,0 -1,0 -1,0 0,0 0,1 0,1 0,0 -1,-1 -1,-1 0,0 -1,0 -1,0 -1,0 -1,0 -2,0 0,-1 -1,-1 -1,-1 -1,0 -2,1 -3,1 0,0 -1,1 -2,1 -1,1 -1,2 -2,3 -1,1 -2,3 -3,4l0 26c0,1 0,1 0,1 0,0 -1,0 -1,0 0,1 -1,1 -1,1 0,0 -1,0 -2,0 -1,0 -1,0 -2,0 0,0 0,0 -1,-1 0,0 0,0 0,0 0,0 0,0 0,-1l0 -39c0,-1 0,-1 0,-1 0,0 0,0 0,-1 0,0 1,0 1,0 1,0 1,0 2,0 1,0 1,0 2,0 0,0 0,0 1,0 0,1 0,1 0,1 0,0 0,0 0,1l0 5c1,-1 2,-3 3,-4 1,-1 2,-1 3,-2 1,-1 2,-1 3,-1 0,0 1,0 2,0 0,0 1,0 1,0 1,0 1,0 2,0 0,0 1,0 1,0 1,0 1,1 1,1 0,0 1,0 1,0 0,0 0,0 0,1 0,0 0,0 0,0 0,1 0,1 0,2zm41 16c0,1 0,2 -1,2 0,1 -1,1 -2,1l-26 0c0,2 0,4 1,6 0,2 1,3 2,4 1,2 2,3 4,3 1,1 4,1 6,1 2,0 3,0 5,0 1,0 3,-1 4,-1 1,0 2,-1 2,-1 1,0 2,-1 2,-1 0,0 0,0 1,1 0,0 0,0 0,0 0,0 0,1 0,1 0,0 0,1 0,1 0,1 0,1 0,1 0,1 0,1 0,1 0,0 0,0 0,1 0,0 0,0 -1,0 0,0 0,1 -1,1 -1,0 -2,1 -3,1 -1,0 -3,1 -4,1 -2,0 -4,0 -6,0 -3,0 -6,0 -8,-1 -3,-1 -5,-2 -7,-4 -1,-2 -3,-4 -3,-7 -1,-3 -2,-6 -2,-9 0,-4 1,-7 2,-10 0,-2 2,-5 3,-7 2,-1 4,-3 6,-4 3,-1 5,-1 8,-1 4,0 6,0 8,1 3,1 4,2 6,4 1,2 2,4 3,6 1,2 1,5 1,7l0 2zm-7 -2c0,-4 -1,-7 -3,-9 -2,-3 -4,-4 -8,-4 -2,0 -3,1 -5,1 -1,1 -2,2 -3,3 -1,1 -2,2 -2,4 -1,1 -1,3 -1,5l22 0zm52 23c0,1 0,1 0,1 0,0 0,0 0,0 -1,1 -1,1 -1,1 -1,0 -1,0 -2,0 -1,0 -1,0 -1,0 -1,0 -1,0 -1,-1 -1,0 -1,0 -1,0 0,0 0,0 0,-1l0 -5c-2,2 -5,4 -7,5 -2,2 -4,2 -7,2 -3,0 -6,0 -8,-1 -2,-1 -3,-3 -5,-5 -1,-2 -2,-4 -2,-7 -1,-2 -1,-5 -1,-8 0,-3 0,-7 1,-9 0,-3 2,-5 3,-7 1,-2 3,-4 5,-5 3,-1 5,-1 8,-1 2,0 4,0 6,1 2,1 4,3 6,5l0 -24c0,0 0,0 0,0 0,0 0,-1 1,-1 0,0 0,0 1,0 0,0 1,0 2,0 0,0 1,0 1,0 1,0 1,0 1,0 1,0 1,1 1,1 0,0 0,0 0,0l0 59zm-7 -28c-2,-2 -4,-4 -6,-5 -2,-2 -4,-2 -6,-2 -1,0 -3,0 -4,1 -2,1 -3,2 -3,4 -1,1 -2,3 -2,5 -1,1 -1,3 -1,5 0,2 0,4 1,6 0,2 1,4 1,5 1,2 2,3 3,4 2,1 3,1 5,1 1,0 2,0 3,0 1,-1 2,-1 3,-2 1,0 2,-1 3,-2 1,-1 2,-2 3,-4l0 -16zm78 8c0,3 0,6 -1,9 -1,3 -2,5 -3,7 -2,2 -4,4 -6,5 -2,1 -4,1 -7,1 -1,0 -3,0 -4,0 -1,0 -2,-1 -3,-1 -1,-1 -2,-2 -3,-2 -1,-1 -2,-2 -3,-3l0 4c0,1 0,1 0,1 0,0 -1,0 -1,0 0,1 0,1 -1,1 0,0 -1,0 -1,0 -1,0 -2,0 -2,0 0,0 -1,0 -1,-1 0,0 0,0 -1,0 0,0 0,0 0,-1l0 -59c0,0 0,0 1,0 0,-1 0,-1 0,-1 0,0 1,0 1,0 1,0 1,0 2,0 1,0 1,0 2,0 0,0 1,0 1,0 0,0 0,0 1,1 0,0 0,0 0,0l0 24c1,-1 2,-2 3,-3 1,-1 2,-1 3,-2 1,-1 3,-1 4,-1 1,0 2,0 3,0 3,0 5,0 7,1 2,1 4,3 5,5 2,2 3,4 3,7 1,2 1,5 1,8zm-8 1c0,-2 0,-4 0,-6 0,-2 -1,-4 -2,-5 0,-2 -1,-3 -3,-4 -1,-1 -3,-1 -4,-1 -1,0 -2,0 -3,0 -1,0 -2,1 -3,2 -1,0 -2,1 -3,2 -1,1 -2,2 -3,4l0 16c2,2 4,4 5,5 2,1 4,2 6,2 2,0 4,0 5,-1 1,-1 2,-2 3,-4 1,-1 1,-3 2,-5 0,-2 0,-3 0,-5zm37 21l-6 14c0,1 0,1 -1,1 -1,1 -2,1 -3,1 -1,0 -2,0 -2,0 -1,0 -1,-1 -1,-1 0,0 -1,0 -1,-1 0,0 0,0 1,-1l5 -13c0,-1 0,-1 -1,-1 0,0 0,-1 0,-1l-14 -38c-1,-1 -1,-1 -1,-1 0,-1 0,-1 1,-1 0,-1 0,-1 1,-1 0,0 1,0 2,0 1,0 2,0 2,0 1,0 1,0 1,0 1,1 1,1 1,1 0,0 0,0 0,1l12 32 0 0 11 -32c0,-1 0,-1 0,-1 1,-1 1,-1 2,-1 0,0 1,0 2,0 1,0 1,0 2,0 0,0 1,0 1,1 0,0 0,0 0,1 0,0 0,0 0,1l-14 40z"/>
  </g>
  <path fill="white" d="M448 152l0 0c3,-1 4,-3 4,-6 0,-4 -1,-6 -4,-7l-65 -41c-2,-2 -5,-2 -8,0 -3,1 -4,4 -4,7l0 81c0,3 1,6 4,7 1,1 3,1 4,1 2,0 3,0 4,-1l65 -41z"/>
 </g>
</svg>
