<?xml version="1.0" encoding="UTF-8"?>
<!DOCTYPE svg PUBLIC "-//W3C//DTD SVG 1.0//EN" "http://www.w3.org/TR/2001/REC-SVG-20010904/DTD/svg10.dtd">
<!-- Creator: CorelDRAW X7 -->
<svg xmlns="http://www.w3.org/2000/svg" xml:space="preserve" width="904px" height="233px" version="1.0" shape-rendering="geometricPrecision" text-rendering="geometricPrecision" image-rendering="optimizeQuality" fill-rule="evenodd" clip-rule="evenodd"
viewBox="0 0 2484 640"
 xmlns:xlink="http://www.w3.org/1999/xlink">
 <g id="Camada_x0020_1">
  <metadata id="CorelCorpID_0Corel-Layer"/>
  <path fill="white" d="M2253 178l0 0c72,0 129,20 169,62 21,20 37,45 47,74 10,28 15,59 15,95l0 0c0,7 -1,14 -4,20 -3,6 -7,12 -12,17 -4,4 -10,8 -16,10l0 0 0 0c-6,3 -12,4 -19,4l-303 0c2,7 4,14 7,20 6,12 15,23 25,31 10,9 22,16 37,20 15,5 33,7 53,7 22,0 41,-3 57,-8 16,-5 28,-13 39,-23 10,-9 25,-9 34,1l0 0 37 37c9,10 9,25 0,34l-1 1 0 0c-21,20 -45,35 -73,45 -28,9 -59,14 -93,14 -71,0 -127,-20 -168,-61 -21,-21 -36,-45 -47,-74 -10,-28 -14,-60 -14,-95l0 0c0,-72 20,-128 61,-169 20,-21 45,-37 74,-47 28,-10 60,-15 95,-15zm124 181l0 0c-2,-8 -4,-15 -7,-21 -6,-13 -15,-23 -25,-32 -10,-9 -23,-15 -38,-20 -15,-5 -33,-7 -54,-7 -40,0 -70,9 -92,27 -10,9 -18,19 -24,32 -3,6 -5,13 -7,21l247 0zm-438 -173l0 0 58 0c13,0 24,11 24,24 0,5 -1,9 -3,12l-171 386 0 0c-4,10 -10,17 -19,23l0 0c-4,3 -9,5 -13,6 -5,2 -10,2 -15,2 -21,0 -36,-10 -46,-29 0,-1 0,-1 0,-2l-172 -388c-5,-12 0,-26 13,-32 3,-1 6,-2 9,-2l0 0 58 0c10,0 19,7 22,16l116 262 117 -263c4,-9 13,-15 22,-15l0 0zm-421 449l0 0 -52 0c-14,0 -24,-10 -24,-24l0 -401c0,-13 10,-24 24,-24l52 0c14,0 25,11 25,24l0 401c0,14 -11,24 -25,24zm25 -611l0 0 0 71c0,13 -11,24 -25,24l-52 0c-14,0 -24,-11 -24,-24l0 -71c0,-13 10,-24 24,-24l52 0c14,0 25,11 25,24zm-212 611l0 0 -53 0c-13,0 -24,-10 -24,-24l0 -587c0,-13 11,-24 24,-24l53 0c13,0 24,11 24,24l0 587c0,14 -11,24 -24,24zm-328 -294l0 0c5,-3 8,-8 8,-15 0,-7 -3,-12 -8,-16l-146 -91c-6,-3 -12,-4 -18,0 -7,3 -10,9 -10,16l0 182c0,7 3,12 10,16 3,1 6,2 9,2 3,0 7,-1 9,-3l146 -91z"/>
  <path fill="#88EB2C" d="M550 341c1,3 2,6 1,9l1 173c0,6 -1,13 -4,20 -2,6 -6,12 -11,17 -28,27 -61,47 -99,60 -37,13 -80,20 -127,20 -23,0 -46,-2 -68,-5 -22,-4 -42,-9 -61,-16 -19,-7 -37,-16 -54,-26 -16,-11 -31,-23 -45,-36 -13,-14 -25,-29 -36,-46 -10,-16 -19,-34 -26,-53 -7,-19 -12,-40 -16,-61 -3,-22 -5,-45 -5,-68 0,-24 2,-46 5,-68 4,-22 9,-42 16,-61 0,-1 0,-1 1,-1 7,-19 15,-37 25,-53 11,-17 23,-32 36,-45 1,-1 1,-1 2,-2 13,-13 27,-24 43,-34 17,-11 35,-19 54,-27 19,-7 39,-12 61,-15 22,-4 45,-6 68,-6 40,0 77,5 110,15 34,10 64,25 91,45 11,8 13,23 5,34l-32 42c-8,11 -23,13 -34,5l0 0c-35,-26 -82,-40 -140,-40 -69,0 -122,18 -157,54 -17,17 -30,38 -39,64 -9,27 -14,57 -14,93 0,35 5,66 14,93 9,25 22,47 39,64 17,18 39,31 64,40 27,9 58,14 93,14 32,0 61,-4 86,-12 20,-7 38,-16 54,-28l-1 -89 -68 0c-23,0 -43,-19 -43,-43l0 -2c0,-24 20,-43 43,-43l157 0c6,0 12,7 11,18zm348 -223l0 0c-70,0 -123,18 -158,54 -35,35 -53,87 -53,157 0,69 18,122 53,157 35,36 88,54 158,54 69,0 122,-18 157,-54 17,-17 30,-39 39,-64 9,-27 14,-58 14,-93 0,-70 -18,-122 -53,-157 -17,-18 -39,-31 -64,-40 -27,-9 -58,-14 -93,-14zm0 522l0 0c-24,0 -47,-2 -68,-5 -22,-4 -43,-9 -62,-16 -19,-7 -37,-16 -53,-26 -17,-11 -32,-23 -46,-36 0,-1 0,-1 -1,-2 -13,-13 -24,-28 -34,-43 -11,-17 -20,-35 -27,-54 -7,-19 -12,-40 -15,-61 -4,-22 -6,-45 -6,-68 0,-24 2,-46 6,-68 3,-22 8,-42 15,-61 7,-20 16,-38 26,-54 11,-17 23,-32 36,-45 1,-1 1,-1 2,-2 13,-13 28,-24 44,-34 16,-11 34,-19 53,-27 19,-7 40,-12 62,-15 21,-4 44,-6 68,-6 23,0 46,2 67,6 22,3 43,8 62,15 19,8 37,16 53,27 17,10 32,22 46,36l0 0c13,13 25,28 36,45 10,16 19,34 26,54 7,19 12,39 16,61 3,22 5,44 5,68 0,23 -2,46 -5,68 -4,21 -9,42 -16,61 -7,19 -16,37 -26,54 -11,16 -23,31 -36,45 -14,13 -29,25 -46,36 -16,10 -34,19 -53,26 -19,7 -40,12 -62,16 -21,3 -44,5 -67,5z"/>
 </g>
</svg>
