<?xml version="1.0" encoding="UTF-8"?>
<!DOCTYPE svg PUBLIC "-//W3C//DTD SVG 1.0//EN" "http://www.w3.org/TR/2001/REC-SVG-20010904/DTD/svg10.dtd">
<!-- Creator: CorelDRAW X7 -->
<svg xmlns="http://www.w3.org/2000/svg" xml:space="preserve" width="904px" height="343px" version="1.0" shape-rendering="geometricPrecision" text-rendering="geometricPrecision" image-rendering="optimizeQuality" fill-rule="evenodd" clip-rule="evenodd"
viewBox="0 0 662 251"
 xmlns:xlink="http://www.w3.org/1999/xlink">
 <g id="Camada_x0020_1">
  <metadata id="CorelCorpID_0Corel-Layer"/>
  <path fill="white" d="M354 169l0 0 -14 0c-3,0 -6,-3 -6,-6l0 -157c0,-3 3,-6 6,-6l14 0c4,0 7,3 7,6l0 157c0,3 -3,6 -7,6zm57 -163l0 0 0 19c0,4 -3,7 -7,7l-14 0c-3,0 -6,-3 -6,-7l0 -19c0,-3 3,-6 6,-6l14 0c4,0 7,3 7,6zm-7 163l0 0 -14 0c-3,0 -6,-3 -6,-6l0 -107c0,-4 3,-6 6,-6l14 0c4,0 7,2 7,6l0 107c0,3 -3,6 -7,6zm112 -119l0 0 16 0c3,0 6,2 6,6 0,1 0,2 -1,3l-45 103 0 0c-1,3 -3,5 -5,6l0 0c-1,1 -2,1 -4,2 -1,0 -2,0 -3,0 -6,0 -10,-2 -13,-8 0,0 0,0 0,0l-46 -103c-1,-4 0,-7 4,-9 1,0 1,0 2,0l0 0 16 0c2,0 5,1 6,4l31 70 31 -71c1,-2 3,-3 5,-3l0 0zm117 46l0 0c0,-2 -1,-4 -2,-6 -1,-3 -4,-6 -6,-8 -3,-3 -7,-5 -10,-6 -5,-1 -9,-2 -15,-2 -10,0 -19,3 -24,8 -3,2 -5,5 -7,8 -1,2 -1,4 -2,6l66 0zm-33 -49l0 0c19,0 34,6 45,17 6,5 10,12 13,20 2,7 4,15 4,25l0 0c0,2 -1,4 -1,5 -1,2 -2,3 -4,5 -1,1 -2,2 -4,2l0 0 0 0c-1,1 -3,1 -5,1l-81 0c1,2 2,4 2,6 2,3 4,6 7,8 3,3 6,4 10,5 4,2 8,2 14,2 6,0 11,0 15,-2 4,-1 8,-3 10,-6 3,-2 7,-2 9,0l1 0 9 10c3,3 3,7 0,9l0 0 0 0c-5,6 -12,10 -19,12 -8,3 -16,4 -25,4 -19,0 -34,-5 -45,-16 -5,-6 -10,-12 -12,-20 -3,-7 -4,-16 -4,-25l0 0c0,-19 5,-34 16,-45 6,-6 12,-10 20,-13 7,-2 16,-4 25,-4z"/>
  <path fill="#88EB2C" d="M147 91c0,1 0,1 0,2l0 46c0,2 0,4 -1,6 -1,1 -2,3 -3,4 -7,7 -16,13 -26,16 -10,4 -22,5 -34,5 -6,0 -12,0 -18,-1 -6,-1 -11,-2 -17,-4 -5,-2 -9,-4 -14,-7 -4,-3 -8,-6 -12,-10 -3,-3 -7,-7 -9,-12 -3,-4 -5,-9 -7,-14 -2,-5 -4,-11 -5,-16 -1,-6 -1,-12 -1,-18 0,-7 0,-13 1,-18 1,-6 3,-12 5,-17 0,0 0,0 0,0 2,-5 4,-10 7,-14 2,-5 6,-9 9,-12 0,0 0,0 1,-1 3,-3 7,-6 11,-9 5,-3 9,-5 14,-7 6,-2 11,-3 17,-4 6,-1 12,-1 18,-1 11,0 20,1 29,4 9,2 17,6 24,12 3,2 4,6 2,9l-9 11c-2,3 -6,3 -9,1l0 0c-9,-7 -22,-10 -37,-10 -19,0 -33,4 -42,14 -5,4 -8,10 -10,17 -3,7 -4,15 -4,25 0,9 1,17 4,24 2,7 5,13 10,18 5,4 10,8 17,10 7,2 15,4 25,4 8,0 16,-1 23,-3 5,-2 10,-5 14,-8l0 -24 -18 0c-6,0 -12,-5 -12,-11l0 -1c0,-6 6,-11 12,-11l41 0c2,0 4,2 4,5zm92 -59l0 0c-18,0 -32,4 -42,14 -9,9 -14,23 -14,42 0,18 5,32 14,42 10,9 24,14 42,14 19,0 33,-5 42,-14 5,-5 8,-11 10,-18 3,-7 4,-15 4,-24 0,-19 -5,-33 -14,-42 -5,-5 -10,-8 -17,-11 -7,-2 -15,-3 -25,-3zm0 138l0 0c-6,0 -12,0 -18,-1 -6,-1 -11,-2 -16,-4 -5,-2 -10,-4 -15,-7 -4,-3 -8,-6 -12,-10 0,0 0,0 0,0 -4,-4 -7,-8 -9,-12 -3,-4 -5,-9 -7,-14 -2,-5 -3,-11 -4,-16 -1,-6 -2,-12 -2,-18 0,-7 1,-13 2,-18 0,-6 2,-12 4,-17 2,-5 4,-10 7,-14 3,-5 6,-9 9,-12 0,0 1,0 1,-1 3,-3 7,-6 11,-9 5,-3 10,-5 15,-7 5,-2 10,-3 16,-4 6,-1 12,-1 18,-1 6,0 12,0 18,1 6,1 11,2 16,4 6,2 10,4 15,7 4,3 8,6 12,10l0 0c3,3 7,7 9,12 3,4 5,9 7,14 2,5 4,11 5,17 1,5 1,11 1,18 0,6 0,12 -1,18 -1,5 -3,11 -5,16 -2,5 -4,10 -7,14 -2,5 -6,9 -9,12 -4,4 -8,7 -12,10 -5,3 -9,5 -15,7 -5,2 -10,3 -16,4 -6,1 -12,1 -18,1z"/>
  <g id="_972614050080">
   <path fill="#F0CE2E" fill-rule="nonzero" d="M528 238c1,1 2,2 3,2 2,0 4,-2 4,-4l0 -37 -7 0 0 30 -28 -28c-1,-1 -2,-2 -3,-2 -2,0 -4,2 -4,4l0 36 7 0 0 -29 28 28z"/>
   <polygon fill="#FEFEFE" fill-rule="nonzero" points="550,239 550,206 565,206 565,199 528,199 528,206 543,206 543,239 "/>
   <path fill="#2D87B2" fill-rule="nonzero" d="M648 239l0 -7 -22 0c-7,0 -12,-5 -12,-13 0,-7 5,-13 12,-13l22 0 0 -7 -22 0c-11,0 -19,8 -19,20 0,11 8,20 19,20l22 0z"/>
   <path fill="#FEFEFE" fill-rule="nonzero" d="M589 237c1,2 2,3 3,3 2,0 3,-1 4,-3l22 -38 -8 0 -17 31 -18 -31 -9 0 23 38z"/>
  </g>
  <path fill="white" d="M263 231c0,2 0,3 -1,5 0,1 -1,2 -1,3 -1,2 -2,2 -3,3 -2,0 -3,1 -4,1 -1,0 -2,0 -2,0 -1,-1 -1,-1 -2,-1 0,0 -1,-1 -1,-1 -1,0 -1,-1 -2,-2l0 11c0,0 0,0 0,1 0,0 0,0 0,0 0,0 -1,0 -1,0 0,0 0,0 -1,0 0,0 -1,0 -1,0 0,0 0,0 0,0 -1,0 -1,0 -1,0 0,-1 0,-1 0,-1l0 -30c0,0 0,0 0,0 0,0 0,0 1,0 0,0 0,0 0,0 0,0 1,0 1,0 0,0 1,0 1,0 0,0 0,0 0,0 0,0 1,0 1,0 0,0 0,0 0,0l0 3c0,-1 1,-1 2,-2 0,0 1,-1 1,-1 1,0 2,0 2,-1 1,0 2,0 2,0 2,0 3,0 4,1 1,1 2,2 3,3 1,1 1,2 1,3 1,2 1,3 1,5zm-4 0c0,-1 0,-2 0,-3 -1,-1 -1,-2 -1,-3 -1,-1 -1,-1 -2,-2 -1,0 -1,0 -2,0 -1,0 -1,0 -2,0 0,0 -1,0 -1,0 -1,1 -1,1 -2,2 -1,0 -1,1 -2,2l0 8c1,2 2,3 3,3 1,1 2,1 3,1 1,0 2,0 3,0 1,-1 1,-1 2,-2 0,-1 0,-2 1,-3 0,-1 0,-2 0,-3zm30 0c0,1 0,3 -1,5 0,1 -1,2 -2,3 -1,1 -2,2 -3,3 -2,0 -3,1 -5,1 -2,0 -3,-1 -5,-1 -1,-1 -2,-1 -3,-2 -1,-1 -2,-3 -2,-4 0,-1 -1,-3 -1,-5 0,-2 1,-3 1,-5 0,-1 1,-2 2,-3 1,-2 2,-2 3,-3 2,-1 3,-1 5,-1 2,0 4,0 5,1 1,0 2,1 3,2 1,1 2,2 2,4 1,1 1,3 1,5zm-4 0c0,-1 0,-2 -1,-3 0,-1 0,-2 -1,-3 0,-1 -1,-1 -2,-2 -1,0 -2,-1 -3,-1 -1,0 -2,1 -3,1 -1,0 -1,1 -2,2 0,1 -1,1 -1,2 0,2 -1,3 -1,4 0,1 1,2 1,3 0,1 0,2 1,3 0,1 1,1 2,2 1,0 2,0 3,0 1,0 2,0 3,0 1,-1 2,-1 2,-2 1,-1 1,-2 1,-3 1,-1 1,-2 1,-3zm39 -11c0,0 0,0 0,1 0,0 0,0 0,0l-6 21c0,0 0,0 0,0 0,0 -1,0 -1,0 0,0 0,0 -1,0 0,0 0,0 -1,0 0,0 -1,0 -1,0 0,0 -1,0 -1,0 0,0 0,0 0,0 0,0 0,0 0,0l-5 -16 0 0 0 0 -4 16c0,0 0,0 0,0 -1,0 -1,0 -1,0 0,0 0,0 -1,0 0,0 0,0 -1,0 0,0 -1,0 -1,0 0,0 -1,0 -1,0 0,0 0,0 0,0 0,0 0,0 -1,0l-6 -21c0,0 0,0 0,0 0,-1 0,-1 0,-1 0,0 0,0 0,0 0,0 0,0 0,0 1,0 1,0 1,0 0,0 1,0 1,0 0,0 1,0 1,0 0,0 0,0 1,0 0,0 0,0 0,0 0,0 0,0 0,0l5 18 0 0 0 0 5 -18c0,0 0,0 0,0 0,0 0,0 1,0 0,0 0,0 0,0 0,0 1,0 1,0 1,0 1,0 1,0 0,0 1,0 1,0 0,0 0,0 0,0 0,0 0,0 0,0l5 18 0 0 0 0 5 -18c0,0 0,0 1,0 0,0 0,0 0,0 0,0 0,0 1,0 0,0 0,0 1,0 0,0 0,0 0,0 1,0 1,0 1,0 0,0 0,0 0,0 0,0 0,0 0,0zm23 10c0,1 0,1 0,1 -1,1 -1,1 -1,1l-15 0c0,1 1,2 1,3 0,1 0,2 1,2 1,1 1,2 2,2 1,0 2,1 3,1 1,0 2,-1 3,-1 1,0 2,0 2,0 1,0 1,-1 2,-1 0,0 0,0 0,0 1,0 1,0 1,0 0,0 0,0 0,0 0,0 0,1 0,1 0,0 0,0 0,0 0,1 0,1 0,1 0,0 0,0 0,0 0,1 0,1 0,1 0,0 0,0 0,0 0,0 -1,0 -1,0 0,1 -1,1 -2,1 0,0 -1,0 -2,1 -1,0 -2,0 -3,0 -2,0 -3,-1 -5,-1 -1,0 -2,-1 -3,-2 -1,-1 -1,-2 -2,-4 0,-1 -1,-3 -1,-5 0,-2 1,-3 1,-5 1,-1 1,-3 2,-4 1,-1 2,-1 3,-2 2,-1 3,-1 5,-1 1,0 3,0 4,1 1,1 2,1 3,2 1,1 1,2 2,3 0,2 0,3 0,4l0 1zm-4 -1c0,-2 0,-4 -1,-5 -1,-1 -3,-2 -5,-2 -1,0 -1,0 -2,1 -1,0 -1,1 -2,1 0,1 -1,2 -1,2 0,1 -1,2 -1,3l12 0zm23 -7c0,0 0,0 0,1 0,0 0,0 0,0 -1,0 -1,0 -1,0 0,0 0,1 0,1 0,0 0,-1 0,-1 -1,0 -1,0 -1,0 0,0 -1,0 -1,0 0,0 0,0 -1,0 0,0 -1,0 -1,0 0,0 -1,1 -1,1 -1,0 -1,1 -1,1 -1,1 -1,2 -2,3l0 14c0,0 0,0 0,0 0,0 0,0 0,0 -1,0 -1,0 -1,0 0,0 -1,0 -1,0 0,0 -1,0 -1,0 0,0 0,0 -1,0 0,0 0,0 0,0 0,0 0,0 0,0l0 -22c0,0 0,0 0,0 0,0 0,0 0,0 1,0 1,0 1,0 0,0 1,0 1,0 0,0 1,0 1,0 0,0 0,0 0,0 0,0 1,0 1,0 0,0 0,0 0,0l0 3c0,0 1,-1 1,-2 1,0 1,-1 2,-1 0,0 1,-1 1,-1 1,0 1,0 2,0 0,0 0,0 0,0 0,0 1,0 1,0 0,0 1,0 1,1 0,0 0,0 0,0 0,0 0,0 0,0 1,0 1,0 1,0 0,0 0,1 0,1 0,0 0,0 0,1zm22 8c0,1 0,1 -1,1 0,1 0,1 -1,1l-14 0c0,1 0,2 0,3 1,1 1,2 2,2 0,1 1,2 2,2 1,0 2,1 3,1 1,0 2,-1 3,-1 1,0 1,0 2,0 0,0 1,-1 1,-1 1,0 1,0 1,0 0,0 0,0 0,0 1,0 1,0 1,0 0,0 0,1 0,1 0,0 0,0 0,0 0,1 0,1 0,1 0,0 0,0 0,0 0,1 0,1 0,1 0,0 -1,0 -1,0 0,0 0,0 0,0 -1,1 -1,1 -2,1 -1,0 -2,0 -2,1 -1,0 -2,0 -3,0 -2,0 -4,-1 -5,-1 -1,0 -2,-1 -3,-2 -1,-1 -2,-2 -2,-4 -1,-1 -1,-3 -1,-5 0,-2 0,-3 1,-5 0,-1 1,-3 2,-4 1,-1 2,-1 3,-2 1,-1 3,-1 4,-1 2,0 3,0 5,1 1,1 2,1 2,2 1,1 2,2 2,3 1,2 1,3 1,4l0 1zm-4 -1c0,-2 -1,-4 -2,-5 -1,-1 -2,-2 -4,-2 -1,0 -2,0 -2,1 -1,0 -2,1 -2,1 -1,1 -1,2 -1,2 -1,1 -1,2 -1,3l12 0zm28 13c0,0 0,0 0,0 0,0 0,0 0,0 0,0 -1,0 -1,0 0,0 0,0 -1,0 0,0 0,0 0,0 -1,0 -1,0 -1,0 0,0 0,0 0,0 0,0 0,0 0,0l0 -3c-2,1 -3,2 -4,3 -1,0 -2,1 -4,1 -2,0 -3,-1 -4,-1 -1,-1 -2,-2 -3,-3 0,-1 -1,-2 -1,-3 0,-2 -1,-3 -1,-5 0,-2 1,-3 1,-5 0,-1 1,-3 2,-4 0,-1 1,-1 3,-2 1,-1 2,-1 4,-1 1,0 2,0 3,1 1,1 2,1 3,2l0 -12c0,0 0,0 0,0 0,0 0,-1 1,-1 0,0 0,0 0,0 0,0 1,0 1,0 0,0 1,0 1,0 0,0 0,0 1,0 0,0 0,1 0,1 0,0 0,0 0,0l0 32zm-4 -15c-1,-2 -2,-3 -3,-3 -1,-1 -2,-1 -3,-1 -1,0 -2,0 -3,0 0,1 -1,1 -1,2 -1,1 -1,2 -1,3 0,1 -1,2 -1,3 0,1 1,2 1,3 0,1 0,2 1,3 0,1 1,1 1,2 1,0 2,0 3,0 0,0 1,0 1,0 1,0 1,0 2,-1 0,0 1,0 1,-1 1,0 1,-1 2,-2l0 -8zm42 4c0,2 0,3 -1,5 0,1 -1,2 -1,3 -1,2 -2,2 -3,3 -1,0 -3,1 -4,1 -1,0 -1,0 -2,0 -1,-1 -1,-1 -2,-1 0,0 -1,-1 -1,-1 -1,-1 -2,-1 -2,-2l0 3c0,0 0,0 0,0 0,0 0,0 -1,0 0,0 0,0 0,0 0,0 -1,0 -1,0 0,0 -1,0 -1,0 0,0 0,0 0,0 0,0 -1,0 -1,0 0,0 0,0 0,0l0 -32c0,0 0,0 0,0 0,-1 1,-1 1,-1 0,0 0,0 0,0 1,0 1,0 1,0 1,0 1,0 1,0 1,0 1,0 1,0 0,0 0,0 0,1 0,0 0,0 0,0l0 13c1,-1 2,-1 2,-2 1,0 1,-1 2,-1 0,0 1,-1 2,-1 0,0 1,0 1,0 2,0 3,0 4,1 1,1 2,2 3,3 1,1 1,2 2,3 0,2 0,3 0,5zm-4 0c0,-1 0,-2 0,-3 0,-1 -1,-2 -1,-3 -1,-1 -1,-1 -2,-2 0,0 -1,0 -2,0 -1,0 -1,0 -2,0 0,0 -1,0 -1,0 -1,1 -1,1 -2,2 0,0 -1,1 -2,2l0 8c1,2 2,3 3,3 1,1 2,1 3,1 1,0 2,0 3,0 1,-1 1,-1 2,-2 0,-1 0,-2 1,-3 0,-1 0,-2 0,-3zm19 11l-2 8c0,0 -1,1 -1,1 0,0 -1,0 -2,0 0,0 -1,0 -1,0 0,0 0,0 0,0 -1,0 -1,-1 -1,-1 0,0 0,0 0,0l3 -8c0,0 0,0 0,0 0,0 0,0 0,0l-8 -21c0,0 0,-1 0,-1 0,0 0,0 0,0 0,0 0,0 1,0 0,0 0,0 1,0 0,0 1,0 1,0 0,0 0,0 1,0 0,0 0,0 0,0 0,0 0,0 0,0l6 18 0 0 6 -18c0,0 0,0 1,0 0,0 0,0 0,0 1,0 1,0 1,0 1,0 1,0 1,0 1,0 1,0 1,0 0,0 0,0 0,0 0,0 0,1 0,1l-8 21z"/>
  <path fill="white" d="M267 91l0 0c2,-1 2,-2 2,-4 0,-2 0,-3 -2,-4l-39 -25c-1,-1 -3,-1 -5,0 -1,1 -2,3 -2,5l0 48c0,2 1,3 2,4 1,1 2,1 3,1 1,0 2,0 2,-1l39 -24z"/>
 </g>
</svg>
