<?xml version="1.0" encoding="UTF-8"?>
<!DOCTYPE svg PUBLIC "-//W3C//DTD SVG 1.0//EN" "http://www.w3.org/TR/2001/REC-SVG-20010904/DTD/svg10.dtd">
<!-- Creator: CorelDRAW X7 -->
<svg xmlns="http://www.w3.org/2000/svg" xml:space="preserve" width="144px" height="144px" version="1.0" shape-rendering="geometricPrecision" text-rendering="geometricPrecision" image-rendering="optimizeQuality" fill-rule="evenodd" clip-rule="evenodd"
viewBox="0 0 9 9"
 xmlns:xlink="http://www.w3.org/1999/xlink">
 <g id="Camada_x0020_1">
  <metadata id="CorelCorpID_0Corel-Layer"/>
  <path fill="white" d="M9 2c0,-1 -1,-2 -2,-2l-5 0c-1,0 -1,0 -2,0 0,1 0,1 0,2l0 4c0,1 1,1 2,1l1 0 1 1c0,0 0,1 0,1 0,0 1,-1 1,-1l0 -1 2 0c0,0 1,0 1,0 0,0 1,-1 1,-1l0 -4zm-5 4c0,0 0,0 0,0 0,-1 0,-1 0,-1 1,0 1,0 1,1 0,0 0,0 -1,0zm1 -3c0,1 0,1 0,1 0,1 -1,1 -1,1l0 0c0,0 0,0 0,-1l0 0c0,0 0,0 0,-1 0,0 0,0 0,0 0,-1 0,-1 0,-1 0,0 0,0 0,0 -1,0 -1,0 -1,0 0,0 0,-1 0,-1 1,0 1,0 1,0 1,0 2,1 2,1 0,1 -1,1 -1,1z"/>
 </g>
</svg>
