<?xml version="1.0" encoding="UTF-8"?>
<!DOCTYPE svg PUBLIC "-//W3C//DTD SVG 1.0//EN" "http://www.w3.org/TR/2001/REC-SVG-20010904/DTD/svg10.dtd">
<!-- Creator: CorelDRAW X7 -->
<svg xmlns="http://www.w3.org/2000/svg" xml:space="preserve" width="1187px" height="136px" version="1.0" shape-rendering="geometricPrecision" text-rendering="geometricPrecision" image-rendering="optimizeQuality" fill-rule="evenodd" clip-rule="evenodd"
viewBox="0 0 2036 234"
 xmlns:xlink="http://www.w3.org/1999/xlink">
 <g id="Camada_x0020_1">
  <metadata id="CorelCorpID_0Corel-Layer"/>
  <g id="_972614030368">
   <g>
    <path fill="#F0CE2E" fill-rule="nonzero" d="M1520 180c4,4 9,6 13,6 9,0 15,-7 15,-18l0 -156 -28 0 0 125 -121 -120c-4,-4 -8,-6 -13,-6 -9,0 -15,7 -15,18l0 155 29 0 0 -125 120 121z"/>
    <polygon fill="#FEFEFE" fill-rule="nonzero" points="1615,182 1615,41 1680,41 1680,11 1520,11 1520,41 1585,41 1585,182 "/>
    <path fill="#2D87B2" fill-rule="nonzero" d="M2036 182l0 -30 -92 0c-31,0 -53,-24 -53,-56 0,-32 22,-55 53,-55l92 0 0 -30 -92 0c-48,0 -83,33 -83,84 0,49 35,87 83,87l92 0z"/>
    <path fill="#FEFEFE" fill-rule="nonzero" d="M1783 175c3,5 8,9 14,9 6,0 11,-4 15,-9l98 -164 -34 0 -77 132 -78 -132 -37 0 99 164z"/>
   </g>
   <path fill="white" d="M110 120c0,11 -1,20 -3,28 -3,9 -6,16 -10,21 -5,6 -10,11 -17,14 -6,3 -13,5 -22,5 -3,0 -7,-1 -10,-1 -3,-1 -5,-2 -8,-4 -3,-1 -6,-3 -9,-6 -3,-2 -6,-5 -9,-8l0 60c0,1 0,2 0,2 -1,1 -1,1 -2,2 -1,0 -2,0 -4,0 -1,1 -3,1 -5,1 -2,0 -4,0 -5,-1 -2,0 -3,0 -4,0 -1,-1 -1,-1 -2,-2 0,0 0,-1 0,-2l0 -167c0,-1 0,-1 0,-2 1,0 1,-1 2,-1 1,0 2,-1 3,-1 1,0 3,0 5,0 1,0 3,0 4,0 1,0 2,1 3,1 1,0 2,1 2,1 0,1 0,1 0,2l0 16c4,-4 8,-7 11,-10 3,-2 7,-5 10,-6 3,-2 7,-4 11,-5 3,0 7,-1 11,-1 9,0 16,2 22,5 6,4 11,8 15,14 4,6 7,13 8,20 2,8 3,16 3,25zm-23 3c0,-7 0,-13 -1,-18 -1,-6 -3,-11 -5,-15 -2,-5 -5,-8 -9,-11 -4,-3 -9,-4 -14,-4 -3,0 -6,0 -9,1 -3,1 -5,2 -8,4 -3,2 -6,4 -9,7 -3,3 -6,7 -10,11l0 48c6,7 12,13 17,17 6,4 11,6 17,6 6,0 10,-2 14,-4 4,-3 8,-6 10,-11 2,-4 4,-9 5,-15 2,-5 2,-11 2,-16zm167 -2c0,9 -1,18 -4,27 -2,8 -6,15 -11,21 -5,6 -12,10 -19,14 -8,3 -17,5 -27,5 -10,0 -18,-2 -26,-5 -7,-3 -13,-7 -18,-13 -5,-5 -8,-12 -11,-20 -2,-8 -3,-17 -3,-27 0,-10 1,-19 3,-27 3,-8 7,-15 12,-21 5,-6 11,-11 19,-14 7,-3 16,-5 27,-5 9,0 18,2 25,4 8,3 14,8 19,13 4,6 8,13 10,21 3,8 4,17 4,27zm-23 1c0,-7 0,-13 -2,-18 -1,-6 -3,-11 -6,-16 -2,-4 -6,-7 -11,-10 -4,-2 -10,-4 -17,-4 -7,0 -12,1 -17,4 -5,2 -9,5 -12,10 -3,4 -5,9 -6,15 -2,5 -3,12 -3,18 0,7 1,13 2,19 1,6 3,11 6,15 3,4 7,8 12,10 4,3 10,4 17,4 7,0 12,-1 17,-3 5,-3 8,-6 11,-10 3,-4 6,-9 7,-15 2,-6 2,-12 2,-19zm222 -60c0,0 0,1 0,2 -1,1 -1,2 -1,3l-36 114c0,1 0,2 -1,3 0,0 -1,1 -2,1 -1,0 -3,1 -4,1 -2,0 -4,0 -7,0 -3,0 -5,0 -7,0 -2,0 -3,-1 -4,-1 -2,0 -2,-1 -3,-2 0,0 -1,-1 -1,-2l-25 -87 0 -1 -1 1 -23 87c0,1 -1,2 -1,3 -1,0 -2,1 -3,1 -1,0 -3,1 -4,1 -2,0 -4,0 -7,0 -3,0 -5,0 -7,0 -1,0 -3,-1 -4,-1 -1,0 -2,-1 -2,-2 -1,0 -1,-1 -2,-2l-35 -114c0,-1 0,-2 -1,-3 0,-1 0,-2 0,-2 0,-1 0,-2 1,-2 0,-1 1,-1 2,-1 0,-1 1,-1 3,-1 1,0 3,0 5,0 3,0 5,0 6,0 2,0 3,1 4,1 0,0 1,1 1,1 1,1 1,1 1,2l29 99 0 1 1 -1 26 -99c0,-1 0,-1 1,-2 0,0 1,-1 2,-1 0,0 2,-1 3,-1 1,0 3,0 5,0 2,0 4,0 6,0 1,0 2,1 3,1 1,0 1,1 2,1 0,1 0,1 0,2l29 99 0 1 0 -1 29 -99c0,-1 0,-1 1,-2 0,0 1,-1 2,-1 0,0 1,-1 3,-1 1,0 3,0 6,0 2,0 3,0 5,0 1,0 2,0 3,1 1,0 1,1 1,1 1,0 1,1 1,2zm127 55c0,3 -1,6 -3,7 -2,2 -4,2 -6,2l-79 0c0,7 1,13 2,18 2,6 4,10 7,14 3,4 7,7 12,9 5,2 11,3 18,3 6,0 11,-1 16,-2 4,0 8,-1 11,-3 3,-1 6,-2 8,-3 2,-1 4,-1 5,-1 0,0 1,0 2,0 0,1 0,1 1,2 0,0 0,1 0,2 0,1 0,3 0,4 0,1 0,2 0,3 0,1 0,2 0,3 0,0 0,1 -1,1 0,1 0,1 -1,2 0,0 -2,1 -4,2 -3,1 -6,2 -9,4 -4,1 -9,2 -14,2 -5,1 -10,2 -16,2 -10,0 -18,-2 -25,-5 -8,-2 -14,-6 -19,-12 -5,-5 -9,-12 -12,-20 -2,-8 -3,-18 -3,-29 0,-10 1,-19 4,-27 2,-8 6,-15 11,-21 5,-6 11,-10 18,-13 7,-3 15,-5 24,-5 9,0 17,2 24,5 7,3 12,7 16,12 4,5 8,11 10,18 2,7 3,14 3,22l0 4zm-22 -7c0,-11 -3,-20 -8,-27 -6,-6 -13,-10 -24,-10 -5,0 -10,1 -14,3 -4,2 -8,5 -11,8 -2,4 -4,8 -6,12 -1,5 -2,9 -3,14l66 0zm125 -40c0,2 0,3 0,5 0,1 0,2 0,3 -1,1 -1,1 -1,2 -1,0 -1,0 -2,0 -1,0 -2,0 -3,0 -1,-1 -2,-1 -3,-2 -1,0 -3,0 -4,-1 -2,0 -4,0 -6,0 -2,0 -4,0 -6,1 -2,1 -5,2 -7,5 -2,2 -5,4 -7,8 -3,3 -6,7 -9,12l0 79c0,1 0,1 0,2 -1,0 -1,1 -2,1 -1,0 -2,1 -3,1 -2,0 -4,0 -6,0 -2,0 -4,0 -5,0 -2,0 -3,-1 -4,-1 0,0 -1,-1 -1,-1 -1,-1 -1,-1 -1,-2l0 -120c0,-1 0,-1 1,-2 0,0 0,-1 1,-1 1,0 2,-1 3,-1 2,0 3,0 5,0 2,0 4,0 5,0 1,0 2,1 3,1 1,0 1,1 2,1 0,1 0,1 0,2l0 18c3,-5 7,-9 9,-12 3,-3 6,-6 9,-7 2,-2 5,-3 7,-4 3,-1 5,-1 8,-1 1,0 2,0 4,0 1,0 3,1 4,1 2,0 3,1 5,1 1,1 2,1 2,2 1,0 1,0 1,1 1,0 1,1 1,1 0,1 0,2 0,3 0,1 0,3 0,5zm123 47c0,3 0,6 -2,7 -2,2 -4,2 -6,2l-79 0c0,7 1,13 2,18 2,6 4,10 7,14 3,4 7,7 12,9 5,2 11,3 18,3 6,0 11,-1 15,-2 5,0 9,-1 12,-3 3,-1 6,-2 8,-3 2,-1 4,-1 5,-1 0,0 1,0 1,0 1,1 1,1 1,2 1,0 1,1 1,2 0,1 0,3 0,4 0,1 0,2 0,3 0,1 0,2 0,3 0,0 -1,1 -1,1 0,1 -1,1 -1,2 -1,0 -2,1 -4,2 -3,1 -6,2 -10,4 -4,1 -8,2 -13,2 -5,1 -10,2 -16,2 -10,0 -18,-2 -26,-5 -7,-2 -13,-6 -18,-12 -5,-5 -9,-12 -12,-20 -2,-8 -4,-18 -4,-29 0,-10 2,-19 4,-27 3,-8 7,-15 12,-21 5,-6 11,-10 18,-13 7,-3 15,-5 24,-5 9,0 17,2 24,5 6,3 12,7 16,12 4,5 7,11 9,18 2,7 3,14 3,22l0 4zm-22 -7c1,-11 -2,-20 -7,-27 -6,-6 -14,-10 -24,-10 -6,0 -10,1 -15,3 -4,2 -7,5 -10,8 -3,4 -5,8 -6,12 -2,5 -3,9 -3,14l65 0zm158 72c0,1 0,1 0,2 0,0 -1,1 -2,1 0,0 -1,1 -3,1 -1,0 -2,0 -4,0 -2,0 -4,0 -5,0 -1,0 -2,-1 -3,-1 -1,0 -1,-1 -2,-1 0,-1 0,-1 0,-2l0 -16c-6,7 -13,12 -20,16 -7,4 -14,6 -22,6 -9,0 -16,-2 -22,-6 -7,-3 -12,-8 -16,-13 -3,-6 -6,-13 -8,-21 -2,-8 -3,-16 -3,-25 0,-10 2,-19 4,-27 2,-9 5,-16 10,-22 4,-6 9,-10 16,-13 6,-3 14,-5 22,-5 7,0 13,2 19,5 6,3 12,7 17,13l0 -69c0,-1 0,-1 1,-2 0,-1 1,-1 2,-1 0,-1 2,-1 3,-1 1,0 3,0 5,0 2,0 4,0 6,0 1,0 2,0 3,1 1,0 1,0 2,1 0,1 0,1 0,2l0 177zm-22 -84c-6,-8 -11,-13 -17,-17 -5,-4 -11,-6 -17,-6 -6,0 -10,1 -14,4 -4,3 -7,6 -10,10 -2,5 -4,10 -5,15 -1,6 -2,11 -2,17 0,6 1,12 2,18 1,5 2,10 5,15 2,4 5,8 9,11 3,2 8,4 14,4 3,0 6,-1 8,-1 3,-1 6,-3 9,-4 2,-2 5,-5 9,-8 3,-3 6,-6 9,-11l0 -47zm235 22c0,11 -2,20 -4,28 -2,9 -5,16 -10,21 -4,6 -9,11 -16,14 -6,3 -14,5 -22,5 -4,0 -7,-1 -10,-2 -4,0 -7,-1 -10,-3 -3,-2 -6,-4 -9,-7 -3,-2 -6,-5 -10,-9l0 15c0,1 0,1 0,2 -1,0 -1,1 -2,1 -1,0 -2,1 -3,1 -1,0 -3,0 -5,0 -2,0 -3,0 -4,0 -2,0 -3,-1 -3,-1 -1,0 -2,-1 -2,-1 0,-1 0,-1 0,-2l0 -178c0,0 0,-1 0,-2 0,0 1,-1 2,-1 1,0 2,-1 3,-1 2,0 3,0 6,0 2,0 4,0 5,0 1,0 3,1 3,1 1,0 2,1 2,1 0,1 1,2 1,2l0 72c3,-4 7,-7 10,-9 3,-3 6,-5 10,-6 3,-2 6,-3 9,-4 3,-1 7,-1 10,-1 9,0 16,2 23,5 6,4 11,8 15,14 3,6 6,13 8,21 2,7 3,16 3,24zm-23 3c0,-6 -1,-12 -2,-18 -1,-6 -2,-11 -5,-15 -2,-5 -5,-8 -9,-11 -4,-3 -8,-4 -14,-4 -3,0 -6,0 -8,1 -3,1 -6,2 -9,4 -3,2 -6,4 -9,7 -3,3 -6,7 -9,11l0 48c6,8 11,13 17,17 5,4 11,6 17,6 6,0 10,-2 14,-4 4,-3 7,-6 10,-11 2,-4 4,-9 5,-15 1,-5 2,-11 2,-16zm109 62l-16 44c-1,2 -2,3 -4,3 -2,1 -6,2 -10,2 -2,0 -4,0 -6,-1 -1,0 -2,0 -3,-1 -1,0 -1,-1 -1,-2 0,-1 0,-2 0,-3l17 -42c-1,0 -2,-1 -2,-2 -1,0 -2,-1 -2,-2l-43 -114c0,-2 -1,-4 -1,-5 0,-1 1,-2 1,-2 1,-1 2,-1 4,-2 2,0 4,0 6,0 3,0 5,0 7,0 1,0 2,1 3,1 1,0 2,1 2,1 0,1 1,2 1,3l35 96 0 0 33 -96c0,-2 1,-3 2,-4 1,0 2,0 3,-1 2,0 4,0 7,0 2,0 4,0 6,0 1,1 3,1 3,2 1,0 1,1 1,2 0,1 0,3 0,4l-43 119z"/>
  </g>
 </g>
</svg>
