<?xml version="1.0" encoding="UTF-8"?>
<!DOCTYPE svg PUBLIC "-//W3C//DTD SVG 1.0//EN" "http://www.w3.org/TR/2001/REC-SVG-20010904/DTD/svg10.dtd">
<!-- Creator: CorelDRAW X7 -->
<svg xmlns="http://www.w3.org/2000/svg" xml:space="preserve" width="202px" height="144px" version="1.0" shape-rendering="geometricPrecision" text-rendering="geometricPrecision" image-rendering="optimizeQuality" fill-rule="evenodd" clip-rule="evenodd"
viewBox="0 0 20 15"
 xmlns:xlink="http://www.w3.org/1999/xlink">
 <g id="Camada_x0020_1">
  <metadata id="CorelCorpID_0Corel-Layer"/>
  <path fill="white" d="M20 4l0 -1c0,0 1,0 0,0l0 -1c0,0 -1,0 -1,0l0 -1c0,0 0,-1 0,-1l-1 0c0,0 -1,1 -1,1l0 0c0,0 -1,-1 -1,-1l-1 0c0,0 0,1 0,1l0 1c0,0 -1,0 -1,0l0 0c0,0 0,1 0,1l0 1c0,0 0,0 0,0l0 1c0,0 1,0 1,0l0 0c0,0 0,1 0,1l1 1c0,0 1,-1 1,-1l0 0c0,0 1,1 1,1l1 0c0,0 0,-1 0,-1l0 -1c0,0 1,0 1,0l0 0c0,-1 0,-1 0,-1zm-7 2l-1 -1c0,0 1,-2 1,-2l-1 -1c0,-1 -2,0 -2,0l-1 0c0,0 -1,-2 -1,-2l-1 0c-1,0 -1,2 -1,2l-1 0c0,0 -2,0 -2,0l-1 1c0,0 0,2 0,2l0 1c0,0 -2,0 -2,1l0 1c0,0 2,1 2,1l0 1c0,0 0,2 0,2l1 1c0,0 2,-1 2,-1l1 1c0,0 1,2 1,2l1 0c0,0 1,-2 1,-2l1 -1c0,0 2,1 2,1l1 -1c0,0 -1,-2 -1,-2l1 -1c0,0 2,-1 2,-1l0 -2c0,0 -2,0 -2,0zm-6 4c-1,0 -2,-1 -2,-3 0,-1 1,-2 2,-2 2,0 3,1 3,2 0,2 -1,3 -3,3zm11 -6c0,0 -1,1 -1,0 -1,0 -1,0 -1,-1 0,-1 1,-1 1,-1 1,1 1,1 1,2z"/>
 </g>
</svg>
