<?xml version="1.0" encoding="UTF-8"?>
<!DOCTYPE svg PUBLIC "-//W3C//DTD SVG 1.0//EN" "http://www.w3.org/TR/2001/REC-SVG-20010904/DTD/svg10.dtd">
<!-- Creator: CorelDRAW X7 -->
<svg xmlns="http://www.w3.org/2000/svg" xml:space="preserve" width="168px" height="135px" version="1.0" shape-rendering="geometricPrecision" text-rendering="geometricPrecision" image-rendering="optimizeQuality" fill-rule="evenodd" clip-rule="evenodd"
viewBox="0 0 32 25"
 xmlns:xlink="http://www.w3.org/1999/xlink">
 <g id="Camada_x0020_1">
  <metadata id="CorelCorpID_0Corel-Layer"/>
  <path fill="white" d="M16 20c-1,0 -2,0 -3,1 0,0 0,0 0,1l3 2c0,0 0,0 0,0 0,0 0,0 0,0l2 -2c0,-1 0,-1 0,-1 0,-1 -1,-1 -2,-1zm16 -12c0,0 0,0 0,0 -5,-4 -10,-7 -16,-7 -6,0 -12,3 -16,7 0,0 0,0 0,0 0,0 0,0 0,0l2 3c0,0 1,0 1,0 0,0 0,0 0,0 3,-4 8,-6 13,-6 5,0 9,2 13,6 0,0 0,0 0,0 0,0 0,0 0,0l3 -3c0,0 0,0 0,0 0,0 0,0 0,0zm-16 0c-4,0 -9,1 -12,4 0,0 0,1 0,1l3 2c0,0 0,0 0,0 0,0 0,0 0,0 3,-2 6,-4 9,-4 3,0 6,2 8,4 1,0 1,0 1,0 0,0 0,0 0,0l2 -2c0,0 0,0 0,0 0,-1 0,-1 0,-1 -3,-3 -7,-4 -11,-4zm0 6c-3,0 -5,1 -7,3 0,0 0,0 0,0 0,0 0,0 0,0l2 2c0,0 0,0 0,0 0,0 0,0 0,0 2,-1 3,-1 5,-1 1,0 3,0 4,1 0,0 0,0 0,0 1,0 1,0 1,0l2 -2c0,0 0,0 0,0 -2,-2 -4,-3 -7,-3z"/>
  <polygon fill="red" fill-rule="nonzero" points="27,0 28,2 29,2 28,2 18,13 28,23 29,24 28,24 27,25 27,25 26,25 16,15 5,25 5,25 5,25 3,24 3,24 3,23 14,13 3,2 3,2 3,2 5,0 5,0 5,0 16,11 26,0 27,0 "/>
 </g>
</svg>
