<?xml version="1.0" encoding="UTF-8"?>
<!DOCTYPE svg PUBLIC "-//W3C//DTD SVG 1.0//EN" "http://www.w3.org/TR/2001/REC-SVG-20010904/DTD/svg10.dtd">
<!-- Creator: CorelDRAW X7 -->
<svg xmlns="http://www.w3.org/2000/svg" xml:space="preserve" width="168px" height="119px" version="1.0" shape-rendering="geometricPrecision" text-rendering="geometricPrecision" image-rendering="optimizeQuality" fill-rule="evenodd" clip-rule="evenodd"
viewBox="0 0 89 63"
 xmlns:xlink="http://www.w3.org/1999/xlink">
 <g id="Camada_x0020_1">
  <metadata id="CorelCorpID_0Corel-Layer"/>
  <path fill="white" d="M89 18c0,0 0,0 0,0 -12,-11 -28,-18 -44,-18 -17,0 -33,7 -45,18 0,1 0,1 0,1 0,0 0,1 0,1l7 6c0,0 0,0 0,0 1,0 1,0 1,0 10,-10 23,-15 37,-15 13,0 26,5 36,15 0,0 0,0 1,0 0,0 0,0 0,0l7 -6c0,0 0,-1 0,-1 0,0 0,0 0,-1zm-44 34c-3,0 -6,1 -7,3 -1,1 -1,1 0,2l6 6c0,0 0,0 1,0 0,0 0,0 0,0l7 -6c0,-1 0,-1 0,-2 -2,-2 -5,-3 -7,-3zm0 -18c-8,0 -15,3 -20,9 -1,0 -1,0 -1,0 0,1 0,1 1,1l6 6c0,1 0,1 1,1 0,0 0,0 0,-1 4,-3 8,-5 13,-5 4,0 9,2 12,5 0,1 0,1 0,1 1,0 1,0 1,-1l7 -6c0,0 0,-1 0,-1 -6,-6 -13,-9 -20,-9zm0 -17c-13,0 -24,5 -33,13 0,1 0,1 0,2l7 6c0,0 0,1 1,1 0,0 0,-1 0,-1 7,-6 15,-10 25,-10 9,0 17,4 24,10 0,0 0,1 1,1 0,0 0,-1 0,-1l7 -6c0,0 0,-1 0,-1 0,0 0,0 0,-1 -9,-8 -20,-13 -32,-13z"/>
 </g>
</svg>
